<svg version="1.1" id="Layer_1" xmlns="http://www.w3.org/2000/svg" xmlns:xlink="http://www.w3.org/1999/xlink" x="0px" y="0px"
	 width="100%" viewBox="0 0 1000 750" enable-background="new 0 0 1000 750" xml:space="preserve">
<path fill="#000000" opacity="1.000000" stroke="none" 
	d="
M622.000000,751.000000 
	C414.666656,751.000000 207.833328,751.000000 1.000000,751.000000 
	C1.000000,501.000000 1.000000,251.000000 1.000000,1.000000 
	C334.333344,1.000000 667.666687,1.000000 1001.000000,1.000000 
	C1001.000000,251.000000 1001.000000,501.000000 1001.000000,751.000000 
	C874.833313,751.000000 748.666687,751.000000 622.000000,751.000000 
M315.915802,456.993958 
	C315.702209,456.838959 315.488647,456.683990 315.156311,455.682526 
	C315.358978,453.031769 316.235992,450.200165 315.586365,447.777985 
	C314.844574,445.012482 313.324890,441.683624 311.088776,440.282776 
	C308.177979,438.459320 305.595459,440.801025 304.246490,443.863312 
	C303.921509,444.601013 303.620575,445.349274 303.459106,445.734039 
	C301.395020,442.878906 299.911865,440.827393 298.428711,438.775879 
	C297.879089,438.874298 297.329437,438.972717 296.779785,439.071136 
	C298.272949,446.367279 300.113953,453.675598 297.039978,460.938660 
	C299.615479,460.938660 302.027039,460.938660 304.613647,460.938660 
	C301.367004,456.220703 301.748932,450.841705 305.792725,445.565125 
	C306.652374,444.443451 308.263855,443.897980 309.528961,443.087036 
	C310.334808,444.398804 311.673248,445.647247 311.838287,447.035217 
	C312.208771,450.150909 311.990234,453.335968 312.022797,456.492676 
	C312.078064,461.846161 313.052856,462.461273 317.853271,460.111298 
	C319.135895,459.483398 320.353394,458.722626 321.600800,458.022827 
	C321.423950,457.457306 321.247101,456.891785 321.070282,456.326233 
	C319.541840,456.732269 318.013367,457.138275 315.915802,456.993958 
M734.442261,349.484314 
	C738.614502,351.232117 739.377014,354.571716 738.532715,358.537659 
	C737.288147,364.384308 735.597961,370.156555 734.701111,376.052277 
	C733.125854,386.407715 738.011230,394.077667 748.043396,396.968597 
	C757.796997,399.779236 767.640930,399.413086 776.683594,394.682159 
	C780.458252,392.707336 783.922913,389.303131 786.322449,385.737213 
	C789.727173,380.677490 788.356750,378.262177 782.320557,377.527313 
	C778.287476,377.036346 777.197876,374.993530 777.862366,371.447113 
	C778.443237,368.346985 779.207092,365.281616 779.823608,362.187592 
	C782.307190,349.722778 778.593933,343.690033 767.016357,340.609375 
	C771.355347,338.842010 776.389587,337.424805 780.766663,334.878204 
	C790.210083,329.384003 794.479126,320.594391 794.273254,309.834442 
	C794.072388,299.334564 787.943665,292.477417 778.935852,288.341339 
	C774.192322,286.163300 768.849365,284.259399 763.725464,284.119568 
	C741.433105,283.510986 719.121887,283.589355 696.817261,283.449127 
	C695.661926,283.441864 694.489746,283.646606 693.351074,283.878510 
	C688.569336,284.852448 686.714478,288.174774 689.326721,292.217896 
	C692.275330,296.781555 691.900391,301.093994 690.487183,305.972412 
	C683.881287,328.775452 677.396912,351.615143 671.104980,374.506592 
	C669.660522,379.761963 667.219238,383.748749 662.595886,386.814514 
	C660.783875,388.016022 659.074646,391.161224 659.350159,393.138153 
	C659.558777,394.635376 662.971619,396.732086 664.988708,396.765930 
	C681.301208,397.039581 697.623779,397.029816 713.934998,396.698486 
	C716.123901,396.654022 719.117188,394.784668 720.118591,392.899963 
	C720.741272,391.727966 718.745117,388.497223 717.171997,386.960815 
	C713.586243,383.458679 712.171021,379.874084 713.881470,374.896454 
	C715.658203,369.725830 716.801575,364.339325 718.269226,359.060394 
	C721.431213,347.686890 721.443726,347.690369 734.442261,349.484314 
M296.882629,376.380310 
	C309.610718,362.552551 316.420929,345.987122 318.754608,327.583588 
	C321.632935,304.885010 312.094604,288.424561 292.296387,283.365509 
	C269.183655,277.459412 247.173309,280.849945 227.971497,295.605927 
	C207.293854,311.496033 198.483215,333.786163 197.289810,359.073700 
	C196.317810,379.670563 208.318237,394.228149 228.702606,397.713867 
	C254.579514,402.138824 277.549591,395.917145 296.882629,376.380310 
M571.728638,322.110931 
	C566.793701,339.360199 561.760132,356.582184 556.981140,373.874573 
	C555.449646,379.416260 552.930420,383.804260 547.911194,387.004547 
	C546.064331,388.182159 545.408691,391.227875 544.209656,393.421478 
	C546.403320,394.613739 548.588745,396.825775 550.791809,396.843475 
	C578.785767,397.068390 606.782471,397.022583 634.778076,396.935608 
	C641.474182,396.914795 646.204590,393.772400 648.211182,387.148773 
	C650.137024,380.791962 652.209473,374.469116 653.834961,368.034668 
	C655.432495,361.710571 652.299561,357.713501 645.746460,358.256195 
	C642.516357,358.523712 639.054321,360.132202 636.395630,362.084839 
	C633.225891,364.412750 630.311523,367.435822 628.149353,370.724915 
	C620.855103,381.820587 610.191406,381.710480 598.330139,380.250000 
	C601.189087,370.018707 604.412781,360.082306 606.622314,349.925262 
	C607.794006,344.539154 610.668579,343.384338 614.903564,344.715820 
	C616.885010,345.338806 618.702576,347.629944 619.823486,349.603058 
	C622.132629,353.667694 623.637695,358.554321 629.656311,357.862427 
	C635.500854,357.190582 637.149658,352.618713 638.472229,347.743744 
	C640.211365,341.332764 642.463623,335.048676 643.926270,328.581329 
	C644.472229,326.167450 644.276245,321.896301 642.903442,321.107056 
	C640.422485,319.680664 636.483154,319.288300 633.742615,320.212860 
	C630.622620,321.265411 627.850525,323.945770 625.462341,326.432556 
	C621.793701,330.252625 617.641541,330.727356 612.560303,329.601074 
	C615.143555,320.278046 617.594421,311.143494 620.299927,302.085022 
	C620.592285,301.106293 622.337219,299.971649 623.448730,299.927582 
	C628.772095,299.716522 634.110596,299.932281 639.441162,299.842438 
	C642.602844,299.789124 644.361877,301.169861 645.182861,304.195923 
	C646.268799,308.198883 647.475098,312.174652 648.789124,316.108826 
	C650.338989,320.748932 653.862732,322.266479 658.525696,322.212616 
	C663.104004,322.159760 666.251343,320.229675 667.579712,315.874176 
	C669.469788,309.677002 671.381287,303.466888 672.820129,297.156616 
	C674.545410,289.590149 671.131104,284.945374 663.423889,283.733032 
	C661.623657,283.449860 659.778442,283.342987 657.953735,283.341125 
	C633.957092,283.316467 609.960510,283.312897 585.963867,283.346405 
	C583.806519,283.349426 581.622864,283.485016 579.497620,283.837433 
	C574.117554,284.729492 572.306274,288.235352 575.311829,292.700012 
	C577.923218,296.579163 577.983459,300.373962 576.738525,304.558777 
	C575.080750,310.130981 573.525330,315.733612 571.728638,322.110931 
M853.609863,397.746918 
	C864.461853,397.851227 874.814087,395.925140 884.065063,389.904877 
	C905.246216,376.120850 905.965942,347.969666 885.431824,333.473999 
	C879.188965,329.066986 872.555420,325.217194 866.212646,320.946136 
	C863.191467,318.911774 859.757935,316.957733 857.764893,314.094635 
	C856.128906,311.744415 855.430420,307.930908 855.969360,305.078278 
	C856.677124,301.332306 860.343323,299.152008 864.038208,300.040283 
	C868.734009,301.169067 873.607971,302.799103 877.550720,305.472839 
	C881.592224,308.213593 884.588318,312.488831 888.069946,316.065247 
	C890.039246,318.088165 891.845886,320.359955 894.107727,321.989441 
	C899.814331,326.100830 905.751526,324.254456 907.953796,317.652283 
	C910.685486,309.463074 913.212097,301.199738 915.592468,292.901093 
	C917.231140,287.188080 914.418640,283.155334 908.411194,283.214020 
	C905.104187,283.246307 901.612244,284.443878 898.571472,285.889557 
	C895.623108,287.291229 893.145447,289.682953 890.359192,291.714142 
	C888.942505,290.971375 887.493713,290.183960 886.021118,289.443939 
	C872.623779,282.711426 858.559265,280.224365 843.918091,283.985535 
	C828.923340,287.837463 818.483032,296.864105 815.193481,312.545013 
	C811.894348,328.271851 818.666748,339.665070 831.493408,348.123566 
	C836.905701,351.692657 842.440796,355.077759 847.810120,358.709015 
	C850.551819,360.563232 853.779297,362.316895 855.447205,364.961243 
	C857.003601,367.428772 857.931335,371.428772 857.007690,373.985321 
	C856.186401,376.258423 852.636902,378.462250 849.960815,378.976959 
	C841.925232,380.522522 835.310669,377.345947 830.193359,371.041992 
	C826.209900,366.134766 822.618896,360.847534 818.209473,356.362244 
	C811.941589,349.986450 803.887878,351.945557 800.901672,360.309692 
	C797.888794,368.748779 795.126343,377.280518 792.408630,385.820801 
	C790.043518,393.252930 793.590637,397.810242 801.322632,396.844757 
	C804.300598,396.472900 807.318604,394.953522 809.908813,393.311127 
	C813.252380,391.191040 816.185364,388.423401 819.508484,385.763947 
	C829.162170,393.771027 840.320496,397.458740 853.609863,397.746918 
M456.981140,314.426544 
	C451.358765,334.231018 445.590454,353.995941 440.207336,373.865265 
	C438.689178,379.468872 436.246277,383.808868 431.253387,387.007080 
	C429.556244,388.094177 427.816620,391.300262 428.265411,392.946930 
	C428.728302,394.645294 431.812866,396.710999 433.783691,396.746063 
	C450.096436,397.036163 466.419586,397.030945 482.731873,396.716156 
	C484.941376,396.673523 487.933380,394.885284 488.988983,393.016296 
	C489.634460,391.873413 487.660217,388.689301 486.179382,387.032471 
	C483.658844,384.212433 481.069580,381.588470 482.183655,377.444763 
	C484.076874,370.403168 486.134827,363.405853 488.030548,356.717834 
	C499.171967,356.148041 510.029053,356.207062 520.723206,354.915955 
	C541.941284,352.354279 555.812927,340.209564 560.545166,321.168030 
	C564.491882,305.287323 558.275940,292.332062 543.714661,286.731842 
	C540.042114,285.319397 536.033386,284.085785 532.156433,284.015076 
	C510.022125,283.611633 487.881042,283.579529 465.742096,283.445892 
	C464.751251,283.439911 463.750885,283.627075 462.768738,283.801849 
	C457.379333,284.761169 455.661896,287.980591 458.538727,292.663025 
	C460.938049,296.568207 461.199036,300.377045 459.845947,304.559631 
	C458.875244,307.560272 458.037933,310.604065 456.981140,314.426544 
M333.803223,338.134705 
	C330.288361,350.422974 326.616699,362.669617 323.335602,375.020020 
	C322.019440,379.974152 319.550232,383.564819 315.350830,386.534454 
	C313.403870,387.911255 312.626129,390.941498 311.318298,393.222137 
	C313.669800,394.477448 315.954620,396.636017 318.385529,396.815491 
	C325.175415,397.316803 332.025818,397.013611 338.852264,397.000610 
	C347.842651,396.983490 356.846466,397.200592 365.814392,396.735992 
	C368.231506,396.610779 371.027435,394.794342 372.633362,392.895050 
	C373.195953,392.229675 371.146637,388.513275 369.527039,387.014771 
	C365.751434,383.521362 364.750488,379.686371 366.246277,374.877625 
	C367.774353,369.965118 369.284790,365.030243 370.417786,360.018127 
	C371.092682,357.032623 372.368073,356.018951 375.464447,356.107635 
	C382.282623,356.302948 389.122162,356.260223 395.936707,355.953064 
	C405.495056,355.522125 414.789886,353.567719 423.192200,348.841553 
	C438.621094,340.162994 445.584991,326.491302 444.878510,309.109680 
	C444.333344,295.696381 432.530426,284.943909 416.440948,284.138336 
	C397.340271,283.181976 378.174164,283.506836 359.035797,283.350525 
	C354.881470,283.316589 350.693726,283.327515 346.576294,283.798187 
	C340.838715,284.454102 339.121216,287.856262 342.057037,292.834503 
	C344.267212,296.582306 344.484833,300.192108 343.292816,304.268250 
	C340.078247,315.260712 337.064789,326.311951 333.803223,338.134705 
M131.080887,368.467010 
	C129.734848,371.666748 128.730392,375.070709 126.966530,378.020599 
	C123.961502,383.046295 120.515747,383.722443 114.433723,380.918304 
	C121.014236,375.328613 123.063210,368.110291 122.083488,359.896484 
	C121.318779,353.485321 116.987000,348.637390 110.980247,347.252533 
	C102.386223,345.271179 93.190071,349.504974 89.015961,357.364624 
	C82.255989,370.093201 86.805351,384.751007 99.813896,391.986694 
	C110.436081,397.895111 122.005531,398.776917 133.746674,397.723236 
	C155.055206,395.811005 169.226456,384.754517 175.268646,363.986938 
	C180.928574,344.533295 186.469009,325.044220 191.929062,305.533539 
	C193.285522,300.686462 195.578949,296.893494 199.852646,293.929108 
	C201.995514,292.442719 203.031082,289.359955 204.567413,286.999146 
	C201.894623,285.774872 199.226776,284.539490 196.541641,283.342865 
	C196.263504,283.218933 195.882660,283.325195 195.549469,283.325195 
	C180.389496,283.325043 165.229416,283.297516 150.069656,283.353821 
	C147.750992,283.362427 145.359787,283.469543 143.132599,284.040192 
	C139.472397,284.978058 138.476440,288.576324 140.991348,291.381012 
	C142.089493,292.605652 143.420837,293.690338 144.817245,294.565887 
	C149.631378,297.584320 150.692551,301.512207 149.049866,306.967651 
	C142.969086,327.162384 137.186188,347.446747 131.080887,368.467010 
M425.920380,461.164886 
	C427.500732,461.082367 429.081085,460.999817 429.182587,460.994507 
	C428.758820,456.362762 427.408173,451.907074 428.320984,447.977112 
	C428.935913,445.329742 432.747772,443.424927 435.318146,441.010651 
	C438.457611,446.386597 438.573486,456.684875 436.189453,460.782654 
	C438.469696,460.782654 440.761108,460.782654 441.875946,460.782654 
	C441.588989,455.999359 440.667053,451.300110 441.344452,446.843994 
	C441.628540,444.975128 445.300629,443.621307 447.432465,442.033356 
	C448.206635,443.651306 449.461212,445.214142 449.654510,446.898743 
	C450.050842,450.352966 449.735901,453.884033 450.017181,457.358887 
	C450.114746,458.563782 451.109833,459.695984 451.694977,460.861389 
	C453.721313,459.660004 455.848694,458.590881 457.707642,457.170410 
	C458.214905,456.782837 457.915070,455.339020 458.081909,453.070801 
	C455.840393,455.469513 454.680084,456.711182 453.035706,458.470886 
	C453.035706,455.024811 453.247101,452.402069 452.981964,449.828430 
	C452.654175,446.646667 453.011932,442.315643 451.137177,440.612213 
	C447.931671,437.699615 444.502563,441.311981 441.366455,442.965485 
	C441.091003,443.110748 440.720734,443.076233 440.604126,443.093750 
	C439.909302,441.961700 439.141998,439.936432 438.628784,439.998901 
	C434.767090,440.468933 430.955414,441.349976 427.512604,442.026917 
	C426.577301,440.665436 425.224792,438.696716 423.872253,436.727997 
	C423.310364,436.888245 422.748505,437.048462 422.186615,437.208710 
	C424.897644,445.100433 425.247406,452.953339 422.891266,460.966583 
	C423.557648,461.019226 424.362427,461.082825 425.920380,461.164886 
M475.760925,458.752808 
	C475.167023,459.273132 474.573120,459.793457 473.628723,460.620850 
	C476.598938,460.620850 479.030304,460.620850 480.377472,460.620850 
	C479.976715,455.703491 479.001129,450.998322 479.527039,446.467407 
	C479.726257,444.751312 483.387939,443.437103 485.471405,441.939758 
	C486.289764,443.671600 487.604767,445.344177 487.820099,447.148041 
	C488.231750,450.596893 487.851471,454.135101 488.156982,457.604767 
	C488.257874,458.750824 489.968018,460.802338 490.079956,460.745331 
	C492.191315,459.670776 494.268799,458.460114 496.108734,456.974854 
	C496.523834,456.639771 496.017487,455.163147 495.935303,454.212006 
	C495.534668,454.126282 495.134033,454.040558 494.733398,453.954834 
	C493.810120,455.427155 492.886841,456.899445 491.963562,458.371735 
	C491.151398,455.143311 491.360352,452.660797 491.100586,450.228302 
	C490.744598,446.894165 491.166565,442.369873 489.213684,440.567047 
	C486.114441,437.705963 482.607239,441.394531 479.446411,442.981567 
	C479.184113,443.113251 478.798309,442.998962 478.736725,442.998962 
	C478.013641,441.873047 477.260620,439.926544 476.720428,439.983917 
	C473.002350,440.378754 469.328766,441.192383 465.593231,441.880066 
	C464.754059,440.656433 463.385956,438.661530 462.017883,436.666656 
	C461.374054,436.809448 460.730255,436.952240 460.086426,437.095032 
	C463.354279,445.016113 463.601013,452.911957 461.173401,460.850647 
	C463.717377,460.850647 466.245331,460.850647 469.072662,460.850647 
	C463.891968,455.668732 464.574921,442.812988 474.678070,442.009918 
	C476.929657,447.072784 475.547821,452.595520 475.760925,458.752808 
M335.319794,439.783722 
	C333.663879,439.750397 332.001587,439.608429 330.353333,439.705414 
	C326.392670,439.938385 323.538696,443.330292 323.643372,447.328217 
	C323.721344,450.305450 323.205139,453.353119 323.700989,456.241089 
	C323.944489,457.659363 325.681946,459.492584 327.099365,459.900360 
	C330.214478,460.796570 333.556122,460.905396 336.805298,461.335602 
	C332.467133,463.263519 328.721893,468.112213 323.518860,463.759460 
	C324.134979,465.291016 324.751129,466.822571 325.460541,468.585968 
	C330.767517,467.237518 335.684326,465.988190 340.410980,464.787201 
	C339.950745,454.452728 331.695007,459.655243 327.060547,457.385620 
	C327.215485,456.342865 327.379089,455.241821 327.399384,455.105103 
	C331.832886,454.125153 336.712860,454.392609 339.357666,452.091248 
	C342.117157,449.690216 343.506500,444.758545 336.928345,440.936676 
	C339.663208,439.884369 341.342743,439.238159 343.022278,438.591919 
	C342.538055,438.040710 342.053864,437.489532 341.569641,436.938324 
	C339.774353,437.906982 337.979034,438.875641 335.319794,439.783722 
M90.009895,457.152527 
	C90.102005,456.168854 90.194107,455.185150 90.293983,454.118530 
	C94.042519,454.118530 97.686234,454.118530 101.550919,454.118530 
	C103.383484,449.934082 106.850662,445.766571 101.319588,441.663940 
	C102.772713,440.342621 104.011490,439.216217 105.393044,437.959991 
	C100.357796,438.618225 95.865211,438.741486 91.659981,439.904083 
	C88.373390,440.812653 86.204773,443.477448 86.338661,447.397125 
	C86.439598,450.352478 85.916283,453.385986 86.434837,456.246216 
	C86.693344,457.672119 88.464447,459.487671 89.902893,459.899719 
	C93.048302,460.800751 96.418289,460.917847 99.696548,461.355133 
	C91.870155,465.809875 91.508156,465.845581 86.075111,463.277100 
	C86.920097,465.269592 87.577515,466.819824 88.326347,468.585571 
	C93.590034,467.232513 98.481842,465.975037 103.168556,464.770294 
	C103.076317,459.585938 100.731812,457.649017 96.199677,458.026123 
	C94.388084,458.176849 92.541351,457.905029 90.009895,457.152527 
M175.189301,438.530457 
	C175.419601,446.861694 175.778214,455.192627 175.796051,463.524323 
	C175.800919,465.796814 174.780746,468.071503 174.243393,470.293945 
	C176.512817,470.293945 179.280609,470.293945 180.764130,470.293945 
	C180.105286,466.411499 179.494568,462.812653 178.785370,458.633575 
	C186.972122,461.108582 191.277618,460.188354 193.737732,453.086761 
	C194.563675,450.702545 193.267365,447.578461 192.923264,444.794739 
	C192.375320,440.361755 189.544159,438.994080 185.621246,439.897583 
	C182.022842,440.726318 178.843628,440.356232 175.189301,438.530457 
M257.812683,456.120544 
	C256.691040,456.984680 255.569412,457.848816 253.571838,459.387787 
	C254.442230,452.260071 252.302261,445.944702 255.555573,439.974579 
	C253.434555,439.974579 251.340225,439.974579 249.145859,439.974579 
	C253.017487,447.864105 250.159058,454.714691 242.002487,457.559875 
	C239.470261,452.346344 239.615479,444.410706 242.273026,440.161804 
	C239.955795,440.161804 237.599030,440.161804 235.817581,440.161804 
	C236.176788,442.292908 236.612381,444.103424 236.764221,445.937408 
	C237.091751,449.893280 236.899109,453.931091 237.622192,457.804199 
	C238.318649,461.534760 241.533081,462.418762 244.662125,460.185883 
	C246.382874,458.958008 248.029129,457.625702 249.758133,456.302826 
	C252.651123,463.013184 253.529221,463.168427 260.256470,458.252075 
	C259.681915,457.464752 259.107208,456.677155 257.812683,456.120544 
M212.393723,431.381104 
	C212.907715,433.059998 213.791458,434.722626 213.866013,436.420807 
	C214.084991,441.407715 213.982330,446.408691 214.005829,451.404175 
	C214.047806,460.327637 214.247040,460.244537 223.113159,460.855072 
	C227.998840,461.191467 228.661682,457.301605 230.467194,454.696838 
	C234.315781,449.144470 230.518021,440.788025 223.928467,440.127686 
	C222.073624,439.941833 220.127151,440.670349 218.124161,440.995483 
	C217.264618,436.499420 216.449554,432.236023 215.381897,426.651337 
	C213.564941,428.823639 212.774796,429.768311 212.393723,431.381104 
M164.618103,439.760559 
	C163.513885,439.760559 162.409653,439.760559 160.948929,439.760559 
	C165.570526,446.560455 162.426865,454.393799 153.854401,457.919678 
	C152.479980,451.799133 151.413116,445.885132 154.665131,440.122253 
	C152.273926,440.122253 149.858917,440.122253 147.985825,440.122253 
	C148.350220,441.991791 148.842438,443.608368 148.949127,445.250000 
	C149.185791,448.891754 148.855972,452.606720 149.436707,456.181427 
	C150.357681,461.850494 153.512772,462.891357 157.984116,459.399994 
	C159.376526,458.312744 160.799988,457.265198 161.758911,456.540009 
	C163.263916,458.511932 164.485901,461.393188 165.656921,461.372620 
	C167.881836,461.333557 170.077591,459.633881 172.285461,458.623901 
	C171.841339,457.694427 171.397217,456.764984 170.849731,455.619171 
	C169.231949,456.846313 167.970612,457.803101 165.711884,459.516418 
	C166.073395,452.285339 166.378601,446.180328 166.694977,439.851990 
	C166.972198,439.871185 166.175385,439.815979 164.618103,439.760559 
M281.160156,439.974152 
	C278.856781,439.544861 276.553406,439.115570 274.765076,438.782288 
	C275.787567,445.631561 272.265198,450.530060 269.785950,455.921387 
	C268.196411,450.426544 266.606873,444.931702 264.949524,439.202423 
	C263.066772,439.496002 261.453278,439.747620 260.104187,439.957977 
	C261.402954,442.372345 262.460815,444.080505 263.272675,445.898590 
	C265.354401,450.560394 267.598846,455.181824 269.184509,460.014191 
	C269.689301,461.552612 268.640594,463.898285 267.662231,465.477875 
	C267.276428,466.100769 265.110168,465.829346 263.813599,465.612640 
	C262.807098,465.444366 261.892120,464.728729 260.527222,464.054169 
	C260.366974,465.283966 259.986267,466.559906 260.218567,466.683533 
	C262.046173,467.655823 264.139618,469.283356 265.859650,468.991425 
	C267.734100,468.673279 270.109772,466.852173 270.845245,465.092133 
	C273.329224,459.147827 275.088562,452.905273 277.326721,446.851318 
	C278.147949,444.630035 279.532013,442.616852 281.160156,439.974152 
M511.487305,460.992279 
	C513.592346,460.617767 516.596619,461.036316 515.032715,457.273956 
	C511.448761,457.923065 508.070435,458.534882 504.462616,459.188293 
	C503.513733,456.650665 502.723541,454.537384 501.822052,452.126495 
	C506.457031,451.298492 510.663788,450.547028 515.097229,449.755035 
	C514.935608,445.689850 515.051575,441.308929 510.867889,439.818665 
	C508.324493,438.912689 504.694672,439.495239 502.108032,440.651215 
	C498.547791,442.242340 496.742889,450.851166 498.443329,454.817657 
	C501.093658,460.999878 503.300781,462.126709 511.487305,460.992279 
M360.194824,443.188538 
	C359.650665,449.078156 358.496948,455.010498 363.319611,459.991760 
	C365.439941,462.181763 375.593292,461.868073 376.928741,459.186920 
	C377.172546,458.697510 376.595520,457.799225 376.398285,457.092865 
	C365.265808,459.995300 365.140350,459.944305 363.904755,452.019257 
	C368.083679,451.263184 372.271088,450.505615 376.425568,449.753967 
	C375.708221,440.959625 373.255402,437.991943 367.029510,439.035004 
	C364.794067,439.409546 362.822327,441.358276 360.194824,443.188538 
M417.958099,450.428833 
	C417.617615,448.475159 417.780182,446.214630 416.819397,444.639282 
	C415.357361,442.242126 413.483429,439.336517 411.111450,438.452362 
	C408.340668,437.419586 404.910797,437.369293 402.298859,440.758301 
	C397.562988,446.903015 397.848206,452.961426 404.045532,460.015778 
	C406.224487,462.496094 411.069305,463.324615 412.646332,461.067749 
	C414.773041,458.024353 416.271851,454.542145 417.958099,450.428833 
M565.722412,451.010254 
	C568.119019,450.581238 570.515686,450.152252 573.024597,449.703156 
	C572.772888,448.287109 572.611450,447.315094 572.426270,446.347656 
	C570.920532,438.483704 565.223694,436.521210 558.605957,441.161804 
	C553.715149,444.591461 555.079651,458.767944 561.358215,461.553925 
	C564.305603,462.861725 568.760986,460.878601 572.486084,460.147919 
	C572.832092,460.080078 572.838684,458.281616 573.035400,457.089539 
	C561.421082,459.768433 561.421082,459.768433 560.042114,452.096832 
	C561.642639,451.763214 563.256836,451.426727 565.722412,451.010254 
M144.478851,452.048737 
	C144.036713,449.441345 144.175354,446.524384 142.995132,444.310455 
	C141.721100,441.920654 139.545639,439.298645 137.155594,438.406921 
	C134.501846,437.416809 131.247849,437.538696 128.770554,440.661224 
	C123.943832,446.745209 124.404900,453.558411 130.740005,460.338135 
	C133.525436,463.319031 137.876266,462.964874 140.141296,459.514679 
	C141.590225,457.307617 142.930939,455.029480 144.478851,452.048737 
M547.456787,441.214600 
	C547.927307,443.009583 548.397827,444.804535 548.868347,446.599518 
	C550.047913,444.652466 551.356506,441.376617 550.476562,440.608643 
	C548.989502,439.310944 545.932434,438.855774 543.864258,439.369629 
	C538.769409,440.635590 536.283691,447.316101 537.300232,455.807770 
	C537.947937,461.218506 542.983215,459.785309 546.144104,461.039856 
	C547.959595,461.760437 550.295288,461.170410 552.396790,461.170410 
	C552.506653,460.516571 552.616577,459.862732 552.726501,459.208893 
	C551.283203,458.802673 549.825500,458.441132 548.399841,457.980316 
	C545.916809,457.177612 542.154297,457.030273 541.223328,455.342346 
	C538.321838,450.081482 541.039734,444.201508 547.456787,441.214600 
M384.765930,441.222015 
	C380.812958,446.467499 381.235565,452.376984 382.221497,459.241272 
	C386.873169,459.988098 391.717560,460.765839 396.561951,461.543610 
	C396.726990,460.732086 396.892059,459.920563 397.057098,459.109070 
	C395.552277,458.746399 394.036133,458.424500 392.545166,458.011810 
	C390.103180,457.335907 386.572113,457.367798 385.449341,455.749207 
	C381.880463,450.604370 386.031708,442.842041 392.807983,441.517059 
	C392.891663,443.322937 392.972809,445.073608 393.053925,446.824280 
	C393.278015,446.831085 393.502106,446.837921 393.726196,446.844757 
	C394.455963,444.903107 395.185699,442.961456 395.821045,441.270996 
	C392.130127,437.330414 388.639893,438.724457 384.765930,441.222015 
M522.002991,455.141235 
	C521.587830,457.026306 521.172668,458.911377 520.769775,460.740479 
	C523.049438,460.740479 525.458130,460.740479 528.082214,460.740479 
	C524.185669,455.739380 525.428589,450.274994 526.015198,445.132812 
	C526.286316,442.756439 528.503601,441.254913 531.106201,443.809021 
	C531.634338,444.327240 532.895325,444.098602 533.818481,444.214264 
	C533.674988,443.255524 533.867065,441.844452 533.315674,441.435455 
	C532.277649,440.665375 530.647034,439.868866 529.556152,440.164856 
	C527.192566,440.806183 525.220459,441.258606 523.422485,439.045013 
	C523.082642,438.626617 521.913940,438.587769 521.278503,438.808289 
	C520.869385,438.950256 520.468506,439.910889 520.520447,440.461487 
	C520.954163,445.057281 521.493958,449.643066 522.002991,455.141235 
M110.590942,447.585205 
	C110.390808,451.971222 110.190681,456.357269 109.979004,460.996368 
	C110.471550,460.996368 111.610550,461.045654 112.743347,460.982880 
	C113.933212,460.916901 115.117134,460.743622 116.644684,460.580933 
	C114.049866,457.912933 112.753197,446.205811 114.843178,444.175476 
	C115.718124,443.325500 117.772156,443.535675 119.287727,443.548431 
	C120.455559,443.558228 121.619652,444.012512 123.373604,444.398682 
	C121.066124,438.140686 116.525406,441.959198 114.769386,440.753326 
	C105.940300,434.690491 110.387077,441.726868 110.572746,444.630493 
	C110.614975,445.290894 110.584175,445.955902 110.590942,447.585205 
M289.955475,443.050293 
	C290.551788,441.683716 291.148102,440.317139 291.925964,438.534546 
	C288.884613,438.703033 286.049744,438.860107 282.582581,439.052185 
	C286.840118,442.292297 287.535736,456.269226 284.249237,461.653992 
	C287.065582,461.653992 289.787628,461.653992 291.597504,461.653992 
	C290.999329,459.141602 290.124969,456.792664 289.943359,454.391357 
	C289.681702,450.930786 289.923309,447.432190 289.955475,443.050293 
z"/>
<path fill="#FDFDFD" opacity="1.000000" stroke="none" 
	d="
M734.045532,349.334106 
	C721.443726,347.690369 721.431213,347.686890 718.269226,359.060394 
	C716.801575,364.339325 715.658203,369.725830 713.881470,374.896454 
	C712.171021,379.874084 713.586243,383.458679 717.171997,386.960815 
	C718.745117,388.497223 720.741272,391.727966 720.118591,392.899963 
	C719.117188,394.784668 716.123901,396.654022 713.934998,396.698486 
	C697.623779,397.029816 681.301208,397.039581 664.988708,396.765930 
	C662.971619,396.732086 659.558777,394.635376 659.350159,393.138153 
	C659.074646,391.161224 660.783875,388.016022 662.595886,386.814514 
	C667.219238,383.748749 669.660522,379.761963 671.104980,374.506592 
	C677.396912,351.615143 683.881287,328.775452 690.487183,305.972412 
	C691.900391,301.093994 692.275330,296.781555 689.326721,292.217896 
	C686.714478,288.174774 688.569336,284.852448 693.351074,283.878510 
	C694.489746,283.646606 695.661926,283.441864 696.817261,283.449127 
	C719.121887,283.589355 741.433105,283.510986 763.725464,284.119568 
	C768.849365,284.259399 774.192322,286.163300 778.935852,288.341339 
	C787.943665,292.477417 794.072388,299.334564 794.273254,309.834442 
	C794.479126,320.594391 790.210083,329.384003 780.766663,334.878204 
	C776.389587,337.424805 771.355347,338.842010 767.016357,340.609375 
	C778.593933,343.690033 782.307190,349.722778 779.823608,362.187592 
	C779.207092,365.281616 778.443237,368.346985 777.862366,371.447113 
	C777.197876,374.993530 778.287476,377.036346 782.320557,377.527313 
	C788.356750,378.262177 789.727173,380.677490 786.322449,385.737213 
	C783.922913,389.303131 780.458252,392.707336 776.683594,394.682159 
	C767.640930,399.413086 757.796997,399.779236 748.043396,396.968597 
	C738.011230,394.077667 733.125854,386.407715 734.701111,376.052277 
	C735.597961,370.156555 737.288147,364.384308 738.532715,358.537659 
	C739.377014,354.571716 738.614502,351.232117 734.045532,349.334106 
M732.841919,304.227234 
	C730.594971,313.174591 728.348083,322.121979 726.004761,331.453278 
	C727.723083,331.453278 728.875244,331.447296 730.027222,331.454224 
	C743.604858,331.535706 751.166321,323.630280 750.541565,309.906677 
	C750.371582,306.172302 749.117676,302.634796 745.017090,302.065796 
	C741.025940,301.511963 736.471069,298.562561 732.841919,304.227234 
z"/>
<path fill="#FDFDFD" opacity="1.000000" stroke="none" 
	d="
M296.638245,376.634460 
	C277.549591,395.917145 254.579514,402.138824 228.702606,397.713867 
	C208.318237,394.228149 196.317810,379.670563 197.289810,359.073700 
	C198.483215,333.786163 207.293854,311.496033 227.971497,295.605927 
	C247.173309,280.849945 269.183655,277.459412 292.296387,283.365509 
	C312.094604,288.424561 321.632935,304.885010 318.754608,327.583588 
	C316.420929,345.987122 309.610718,362.552551 296.638245,376.634460 
M238.013611,377.848602 
	C240.216034,383.506256 244.004440,385.787689 249.129272,382.923340 
	C253.083160,380.713501 257.267242,377.121948 259.027924,373.122864 
	C264.017914,361.788910 268.457184,350.115295 271.888733,338.222137 
	C274.813324,328.086151 276.389740,317.506226 277.773346,307.018555 
	C278.125977,304.345398 276.160034,299.675873 274.050537,298.784424 
	C271.237335,297.595673 266.207153,297.983612 263.982117,299.874542 
	C259.964447,303.289001 256.130951,307.880493 254.329514,312.759125 
	C249.286713,326.415771 244.907593,340.358124 241.100098,354.413544 
	C239.129333,361.688538 238.925049,369.442078 238.013611,377.848602 
z"/>
<path fill="#FCFCFC" opacity="1.000000" stroke="none" 
	d="
M571.827271,321.717041 
	C573.525330,315.733612 575.080750,310.130981 576.738525,304.558777 
	C577.983459,300.373962 577.923218,296.579163 575.311829,292.700012 
	C572.306274,288.235352 574.117554,284.729492 579.497620,283.837433 
	C581.622864,283.485016 583.806519,283.349426 585.963867,283.346405 
	C609.960510,283.312897 633.957092,283.316467 657.953735,283.341125 
	C659.778442,283.342987 661.623657,283.449860 663.423889,283.733032 
	C671.131104,284.945374 674.545410,289.590149 672.820129,297.156616 
	C671.381287,303.466888 669.469788,309.677002 667.579712,315.874176 
	C666.251343,320.229675 663.104004,322.159760 658.525696,322.212616 
	C653.862732,322.266479 650.338989,320.748932 648.789124,316.108826 
	C647.475098,312.174652 646.268799,308.198883 645.182861,304.195923 
	C644.361877,301.169861 642.602844,299.789124 639.441162,299.842438 
	C634.110596,299.932281 628.772095,299.716522 623.448730,299.927582 
	C622.337219,299.971649 620.592285,301.106293 620.299927,302.085022 
	C617.594421,311.143494 615.143555,320.278046 612.560303,329.601074 
	C617.641541,330.727356 621.793701,330.252625 625.462341,326.432556 
	C627.850525,323.945770 630.622620,321.265411 633.742615,320.212860 
	C636.483154,319.288300 640.422485,319.680664 642.903442,321.107056 
	C644.276245,321.896301 644.472229,326.167450 643.926270,328.581329 
	C642.463623,335.048676 640.211365,341.332764 638.472229,347.743744 
	C637.149658,352.618713 635.500854,357.190582 629.656311,357.862427 
	C623.637695,358.554321 622.132629,353.667694 619.823486,349.603058 
	C618.702576,347.629944 616.885010,345.338806 614.903564,344.715820 
	C610.668579,343.384338 607.794006,344.539154 606.622314,349.925262 
	C604.412781,360.082306 601.189087,370.018707 598.330139,380.250000 
	C610.191406,381.710480 620.855103,381.820587 628.149353,370.724915 
	C630.311523,367.435822 633.225891,364.412750 636.395630,362.084839 
	C639.054321,360.132202 642.516357,358.523712 645.746460,358.256195 
	C652.299561,357.713501 655.432495,361.710571 653.834961,368.034668 
	C652.209473,374.469116 650.137024,380.791962 648.211182,387.148773 
	C646.204590,393.772400 641.474182,396.914795 634.778076,396.935608 
	C606.782471,397.022583 578.785767,397.068390 550.791809,396.843475 
	C548.588745,396.825775 546.403320,394.613739 544.209656,393.421478 
	C545.408691,391.227875 546.064331,388.182159 547.911194,387.004547 
	C552.930420,383.804260 555.449646,379.416260 556.981140,373.874573 
	C561.760132,356.582184 566.793701,339.360199 571.827271,321.717041 
z"/>
<path fill="#FDFDFD" opacity="1.000000" stroke="none" 
	d="
M853.147156,397.720215 
	C840.320496,397.458740 829.162170,393.771027 819.508484,385.763947 
	C816.185364,388.423401 813.252380,391.191040 809.908813,393.311127 
	C807.318604,394.953522 804.300598,396.472900 801.322632,396.844757 
	C793.590637,397.810242 790.043518,393.252930 792.408630,385.820801 
	C795.126343,377.280518 797.888794,368.748779 800.901672,360.309692 
	C803.887878,351.945557 811.941589,349.986450 818.209473,356.362244 
	C822.618896,360.847534 826.209900,366.134766 830.193359,371.041992 
	C835.310669,377.345947 841.925232,380.522522 849.960815,378.976959 
	C852.636902,378.462250 856.186401,376.258423 857.007690,373.985321 
	C857.931335,371.428772 857.003601,367.428772 855.447205,364.961243 
	C853.779297,362.316895 850.551819,360.563232 847.810120,358.709015 
	C842.440796,355.077759 836.905701,351.692657 831.493408,348.123566 
	C818.666748,339.665070 811.894348,328.271851 815.193481,312.545013 
	C818.483032,296.864105 828.923340,287.837463 843.918091,283.985535 
	C858.559265,280.224365 872.623779,282.711426 886.021118,289.443939 
	C887.493713,290.183960 888.942505,290.971375 890.359192,291.714142 
	C893.145447,289.682953 895.623108,287.291229 898.571472,285.889557 
	C901.612244,284.443878 905.104187,283.246307 908.411194,283.214020 
	C914.418640,283.155334 917.231140,287.188080 915.592468,292.901093 
	C913.212097,301.199738 910.685486,309.463074 907.953796,317.652283 
	C905.751526,324.254456 899.814331,326.100830 894.107727,321.989441 
	C891.845886,320.359955 890.039246,318.088165 888.069946,316.065247 
	C884.588318,312.488831 881.592224,308.213593 877.550720,305.472839 
	C873.607971,302.799103 868.734009,301.169067 864.038208,300.040283 
	C860.343323,299.152008 856.677124,301.332306 855.969360,305.078278 
	C855.430420,307.930908 856.128906,311.744415 857.764893,314.094635 
	C859.757935,316.957733 863.191467,318.911774 866.212646,320.946136 
	C872.555420,325.217194 879.188965,329.066986 885.431824,333.473999 
	C905.965942,347.969666 905.246216,376.120850 884.065063,389.904877 
	C874.814087,395.925140 864.461853,397.851227 853.147156,397.720215 
z"/>
<path fill="#FDFDFD" opacity="1.000000" stroke="none" 
	d="
M457.061127,314.027588 
	C458.037933,310.604065 458.875244,307.560272 459.845947,304.559631 
	C461.199036,300.377045 460.938049,296.568207 458.538727,292.663025 
	C455.661896,287.980591 457.379333,284.761169 462.768738,283.801849 
	C463.750885,283.627075 464.751251,283.439911 465.742096,283.445892 
	C487.881042,283.579529 510.022125,283.611633 532.156433,284.015076 
	C536.033386,284.085785 540.042114,285.319397 543.714661,286.731842 
	C558.275940,292.332062 564.491882,305.287323 560.545166,321.168030 
	C555.812927,340.209564 541.941284,352.354279 520.723206,354.915955 
	C510.029053,356.207062 499.171967,356.148041 488.030548,356.717834 
	C486.134827,363.405853 484.076874,370.403168 482.183655,377.444763 
	C481.069580,381.588470 483.658844,384.212433 486.179382,387.032471 
	C487.660217,388.689301 489.634460,391.873413 488.988983,393.016296 
	C487.933380,394.885284 484.941376,396.673523 482.731873,396.716156 
	C466.419586,397.030945 450.096436,397.036163 433.783691,396.746063 
	C431.812866,396.710999 428.728302,394.645294 428.265411,392.946930 
	C427.816620,391.300262 429.556244,388.094177 431.253387,387.007080 
	C436.246277,383.808868 438.689178,379.468872 440.207336,373.865265 
	C445.590454,353.995941 451.358765,334.231018 457.061127,314.027588 
M521.255737,307.786926 
	C520.214844,299.382660 516.079041,297.308289 504.342010,299.368530 
	C502.367889,306.158417 500.355621,312.982391 498.402954,319.823364 
	C496.434662,326.719177 494.525543,333.631866 492.551819,340.675232 
	C506.447968,341.499908 511.943085,339.254272 515.730286,329.689423 
	C518.378479,323.001343 519.494507,315.706543 521.255737,307.786926 
z"/>
<path fill="#FDFDFD" opacity="1.000000" stroke="none" 
	d="
M333.887390,337.737305 
	C337.064789,326.311951 340.078247,315.260712 343.292816,304.268250 
	C344.484833,300.192108 344.267212,296.582306 342.057037,292.834503 
	C339.121216,287.856262 340.838715,284.454102 346.576294,283.798187 
	C350.693726,283.327515 354.881470,283.316589 359.035797,283.350525 
	C378.174164,283.506836 397.340271,283.181976 416.440948,284.138336 
	C432.530426,284.943909 444.333344,295.696381 444.878510,309.109680 
	C445.584991,326.491302 438.621094,340.162994 423.192200,348.841553 
	C414.789886,353.567719 405.495056,355.522125 395.936707,355.953064 
	C389.122162,356.260223 382.282623,356.302948 375.464447,356.107635 
	C372.368073,356.018951 371.092682,357.032623 370.417786,360.018127 
	C369.284790,365.030243 367.774353,369.965118 366.246277,374.877625 
	C364.750488,379.686371 365.751434,383.521362 369.527039,387.014771 
	C371.146637,388.513275 373.195953,392.229675 372.633362,392.895050 
	C371.027435,394.794342 368.231506,396.610779 365.814392,396.735992 
	C356.846466,397.200592 347.842651,396.983490 338.852264,397.000610 
	C332.025818,397.013611 325.175415,397.316803 318.385529,396.815491 
	C315.954620,396.636017 313.669800,394.477448 311.318298,393.222137 
	C312.626129,390.941498 313.403870,387.911255 315.350830,386.534454 
	C319.550232,383.564819 322.019440,379.974152 323.335602,375.020020 
	C326.616699,362.669617 330.288361,350.422974 333.887390,337.737305 
M404.775177,311.205048 
	C405.002411,303.190460 403.019318,299.742554 397.730988,298.957550 
	C388.727386,297.621033 388.164124,298.008820 385.412781,307.433289 
	C385.366516,307.591766 385.282990,307.739502 385.237976,307.898224 
	C382.149933,318.789886 379.064056,329.682220 375.949402,340.675415 
	C390.373352,341.598816 395.652588,338.986267 399.916626,328.204773 
	C401.971710,323.008575 403.106171,317.448273 404.775177,311.205048 
z"/>
<path fill="#FCFCFC" opacity="1.000000" stroke="none" 
	d="
M131.186127,368.082214 
	C137.186188,347.446747 142.969086,327.162384 149.049866,306.967651 
	C150.692551,301.512207 149.631378,297.584320 144.817245,294.565887 
	C143.420837,293.690338 142.089493,292.605652 140.991348,291.381012 
	C138.476440,288.576324 139.472397,284.978058 143.132599,284.040192 
	C145.359787,283.469543 147.750992,283.362427 150.069656,283.353821 
	C165.229416,283.297516 180.389496,283.325043 195.549469,283.325195 
	C195.882660,283.325195 196.263504,283.218933 196.541641,283.342865 
	C199.226776,284.539490 201.894623,285.774872 204.567413,286.999146 
	C203.031082,289.359955 201.995514,292.442719 199.852646,293.929108 
	C195.578949,296.893494 193.285522,300.686462 191.929062,305.533539 
	C186.469009,325.044220 180.928574,344.533295 175.268646,363.986938 
	C169.226456,384.754517 155.055206,395.811005 133.746674,397.723236 
	C122.005531,398.776917 110.436081,397.895111 99.813896,391.986694 
	C86.805351,384.751007 82.255989,370.093201 89.015961,357.364624 
	C93.190071,349.504974 102.386223,345.271179 110.980247,347.252533 
	C116.987000,348.637390 121.318779,353.485321 122.083488,359.896484 
	C123.063210,368.110291 121.014236,375.328613 114.433723,380.918304 
	C120.515747,383.722443 123.961502,383.046295 126.966530,378.020599 
	C128.730392,375.070709 129.734848,371.666748 131.186127,368.082214 
z"/>
<path fill="#ECECEC" opacity="1.000000" stroke="none" 
	d="
M425.543793,461.155640 
	C424.362427,461.082825 423.557648,461.019226 422.891266,460.966583 
	C425.247406,452.953339 424.897644,445.100433 422.186615,437.208710 
	C422.748505,437.048462 423.310364,436.888245 423.872253,436.727997 
	C425.224792,438.696716 426.577301,440.665436 427.512604,442.026917 
	C430.955414,441.349976 434.767090,440.468933 438.628784,439.998901 
	C439.141998,439.936432 439.909302,441.961700 440.604126,443.093750 
	C440.720734,443.076233 441.091003,443.110748 441.366455,442.965485 
	C444.502563,441.311981 447.931671,437.699615 451.137177,440.612213 
	C453.011932,442.315643 452.654175,446.646667 452.981964,449.828430 
	C453.247101,452.402069 453.035706,455.024811 453.035706,458.470886 
	C454.680084,456.711182 455.840393,455.469513 458.081909,453.070801 
	C457.915070,455.339020 458.214905,456.782837 457.707642,457.170410 
	C455.848694,458.590881 453.721313,459.660004 451.694977,460.861389 
	C451.109833,459.695984 450.114746,458.563782 450.017181,457.358887 
	C449.735901,453.884033 450.050842,450.352966 449.654510,446.898743 
	C449.461212,445.214142 448.206635,443.651306 447.432465,442.033356 
	C445.300629,443.621307 441.628540,444.975128 441.344452,446.843994 
	C440.667053,451.300110 441.588989,455.999359 441.875946,460.782654 
	C440.761108,460.782654 438.469696,460.782654 436.189453,460.782654 
	C438.573486,456.684875 438.457611,446.386597 435.318146,441.010651 
	C432.747772,443.424927 428.935913,445.329742 428.320984,447.977112 
	C427.408173,451.907074 428.758820,456.362762 429.182587,460.994507 
	C429.081085,460.999817 427.500732,461.082367 425.543793,461.155640 
z"/>
<path fill="#F0F0F0" opacity="1.000000" stroke="none" 
	d="
M475.871460,458.326630 
	C475.547821,452.595520 476.929657,447.072784 474.678070,442.009918 
	C464.574921,442.812988 463.891968,455.668732 469.072662,460.850647 
	C466.245331,460.850647 463.717377,460.850647 461.173401,460.850647 
	C463.601013,452.911957 463.354279,445.016113 460.086426,437.095032 
	C460.730255,436.952240 461.374054,436.809448 462.017883,436.666656 
	C463.385956,438.661530 464.754059,440.656433 465.593231,441.880066 
	C469.328766,441.192383 473.002350,440.378754 476.720428,439.983917 
	C477.260620,439.926544 478.013641,441.873047 478.736725,442.998962 
	C478.798309,442.998962 479.184113,443.113251 479.446411,442.981567 
	C482.607239,441.394531 486.114441,437.705963 489.213684,440.567047 
	C491.166565,442.369873 490.744598,446.894165 491.100586,450.228302 
	C491.360352,452.660797 491.151398,455.143311 491.963562,458.371735 
	C492.886841,456.899445 493.810120,455.427155 494.733398,453.954834 
	C495.134033,454.040558 495.534668,454.126282 495.935303,454.212006 
	C496.017487,455.163147 496.523834,456.639771 496.108734,456.974854 
	C494.268799,458.460114 492.191315,459.670776 490.079956,460.745331 
	C489.968018,460.802338 488.257874,458.750824 488.156982,457.604767 
	C487.851471,454.135101 488.231750,450.596893 487.820099,447.148041 
	C487.604767,445.344177 486.289764,443.671600 485.471375,441.939758 
	C483.387939,443.437103 479.726257,444.751312 479.527039,446.467407 
	C479.001129,450.998322 479.976715,455.703491 480.377472,460.620850 
	C479.030304,460.620850 476.598938,460.620850 473.628723,460.620850 
	C474.573120,459.793457 475.167023,459.273132 475.871460,458.326630 
z"/>
<path fill="#E8E8E8" opacity="1.000000" stroke="none" 
	d="
M335.751770,439.814026 
	C337.979034,438.875641 339.774353,437.906982 341.569641,436.938324 
	C342.053864,437.489532 342.538055,438.040710 343.022278,438.591919 
	C341.342743,439.238159 339.663208,439.884369 336.928345,440.936676 
	C343.506500,444.758545 342.117157,449.690216 339.357666,452.091248 
	C336.712860,454.392609 331.832886,454.125153 327.399384,455.105103 
	C327.379089,455.241821 327.215485,456.342865 327.060547,457.385620 
	C331.695007,459.655243 339.950745,454.452728 340.410980,464.787201 
	C335.684326,465.988190 330.767517,467.237518 325.460541,468.585968 
	C324.751129,466.822571 324.134979,465.291016 323.518860,463.759460 
	C328.721893,468.112213 332.467133,463.263519 336.805298,461.335602 
	C333.556122,460.905396 330.214478,460.796570 327.099365,459.900360 
	C325.681946,459.492584 323.944489,457.659363 323.700989,456.241089 
	C323.205139,453.353119 323.721344,450.305450 323.643372,447.328217 
	C323.538696,443.330292 326.392670,439.938385 330.353333,439.705414 
	C332.001587,439.608429 333.663879,439.750397 335.751770,439.814026 
M329.379242,450.308441 
	C331.539917,450.873474 333.700623,451.438538 337.509827,452.434692 
	C337.216949,448.643402 338.001587,444.646576 336.531036,443.471130 
	C334.825470,442.107788 330.689362,442.334259 328.425354,443.482117 
	C325.497406,444.966614 327.148071,447.685089 329.379242,450.308441 
z"/>
<path fill="#EAEAEA" opacity="1.000000" stroke="none" 
	d="
M90.360252,457.489014 
	C92.541351,457.905029 94.388084,458.176849 96.199677,458.026123 
	C100.731812,457.649017 103.076317,459.585938 103.168556,464.770294 
	C98.481842,465.975037 93.590034,467.232513 88.326347,468.585571 
	C87.577515,466.819824 86.920097,465.269592 86.075111,463.277100 
	C91.508156,465.845581 91.870155,465.809875 99.696548,461.355133 
	C96.418289,460.917847 93.048302,460.800751 89.902893,459.899719 
	C88.464447,459.487671 86.693344,457.672119 86.434837,456.246216 
	C85.916283,453.385986 86.439598,450.352478 86.338661,447.397125 
	C86.204773,443.477448 88.373390,440.812653 91.659981,439.904083 
	C95.865211,438.741486 100.357796,438.618225 105.393044,437.959991 
	C104.011490,439.216217 102.772713,440.342621 101.319588,441.663940 
	C106.850662,445.766571 103.383484,449.934082 101.550919,454.118530 
	C97.686234,454.118530 94.042519,454.118530 90.293983,454.118530 
	C90.194107,455.185150 90.102005,456.168854 90.360252,457.489014 
M100.096375,449.400055 
	C99.792290,447.225189 100.208450,443.809662 99.036682,443.129395 
	C96.465355,441.636658 92.672791,440.756012 90.639069,444.124023 
	C89.917801,445.318512 90.709343,448.455933 91.885490,449.542328 
	C94.022697,451.516510 96.925301,453.330353 100.096375,449.400055 
z"/>
<path fill="#F0F0F0" opacity="1.000000" stroke="none" 
	d="
M175.539001,438.341431 
	C178.843628,440.356232 182.022842,440.726318 185.621246,439.897583 
	C189.544159,438.994080 192.375320,440.361755 192.923264,444.794739 
	C193.267365,447.578461 194.563675,450.702545 193.737732,453.086761 
	C191.277618,460.188354 186.972122,461.108582 178.785370,458.633575 
	C179.494568,462.812653 180.105286,466.411499 180.764130,470.293945 
	C179.280609,470.293945 176.512817,470.293945 174.243393,470.293945 
	C174.780746,468.071503 175.800919,465.796814 175.796051,463.524323 
	C175.778214,455.192627 175.419601,446.861694 175.539001,438.341431 
M181.199127,456.028595 
	C184.779816,457.980103 188.558319,456.595154 189.688660,453.768585 
	C190.778351,451.043701 189.732315,447.077484 188.569885,444.063354 
	C188.196716,443.095703 184.433197,443.085999 182.287292,443.301178 
	C181.236206,443.406586 179.526810,445.021729 179.516769,445.968506 
	C179.482162,449.226654 180.065765,452.491394 181.199127,456.028595 
z"/>
<path fill="#EAEAEA" opacity="1.000000" stroke="none" 
	d="
M258.172607,456.005066 
	C259.107208,456.677155 259.681915,457.464752 260.256470,458.252075 
	C253.529221,463.168427 252.651123,463.013184 249.758133,456.302826 
	C248.029129,457.625702 246.382874,458.958008 244.662125,460.185883 
	C241.533081,462.418762 238.318649,461.534760 237.622192,457.804199 
	C236.899109,453.931091 237.091751,449.893280 236.764221,445.937408 
	C236.612381,444.103424 236.176788,442.292908 235.817581,440.161804 
	C237.599030,440.161804 239.955795,440.161804 242.273026,440.161804 
	C239.615479,444.410706 239.470261,452.346344 242.002487,457.559875 
	C250.159058,454.714691 253.017487,447.864105 249.145859,439.974579 
	C251.340225,439.974579 253.434555,439.974579 255.555573,439.974579 
	C252.302261,445.944702 254.442230,452.260071 253.571838,459.387787 
	C255.569412,457.848816 256.691040,456.984680 258.172607,456.005066 
z"/>
<path fill="#ECECEC" opacity="1.000000" stroke="none" 
	d="
M212.189194,431.047058 
	C212.774796,429.768311 213.564941,428.823639 215.381897,426.651337 
	C216.449554,432.236023 217.264618,436.499420 218.124161,440.995483 
	C220.127151,440.670349 222.073624,439.941833 223.928467,440.127686 
	C230.518021,440.788025 234.315781,449.144470 230.467194,454.696838 
	C228.661682,457.301605 227.998840,461.191467 223.113159,460.855072 
	C214.247040,460.244537 214.047806,460.327637 214.005829,451.404175 
	C213.982330,446.408691 214.084991,441.407715 213.866013,436.420807 
	C213.791458,434.722626 212.907715,433.059998 212.189194,431.047058 
M221.409561,457.983734 
	C225.777023,458.171295 226.954819,454.319305 227.821503,451.622223 
	C228.528076,449.423401 227.656403,445.407623 225.995132,444.121796 
	C224.294525,442.805573 220.782089,443.830231 217.890869,443.830231 
	C217.890869,448.199646 217.647720,451.382812 218.013626,454.494385 
	C218.154861,455.695374 219.678741,456.733765 221.409561,457.983734 
z"/>
<path fill="#E8E8E8" opacity="1.000000" stroke="none" 
	d="
M316.484924,457.544312 
	C318.013367,457.138275 319.541840,456.732269 321.070282,456.326233 
	C321.247101,456.891785 321.423950,457.457306 321.600800,458.022827 
	C320.353394,458.722626 319.135895,459.483398 317.853271,460.111298 
	C313.052856,462.461273 312.078064,461.846161 312.022797,456.492676 
	C311.990234,453.335968 312.208771,450.150909 311.838287,447.035217 
	C311.673248,445.647247 310.334808,444.398804 309.528961,443.087036 
	C308.263855,443.897980 306.652374,444.443451 305.792725,445.565125 
	C301.748932,450.841705 301.367004,456.220703 304.613647,460.938660 
	C302.027039,460.938660 299.615479,460.938660 297.039978,460.938660 
	C300.113953,453.675598 298.272949,446.367279 296.779785,439.071136 
	C297.329437,438.972717 297.879089,438.874298 298.428711,438.775879 
	C299.911865,440.827393 301.395020,442.878906 303.459106,445.734039 
	C303.620575,445.349274 303.921509,444.601013 304.246490,443.863312 
	C305.595459,440.801025 308.177979,438.459320 311.088776,440.282776 
	C313.324890,441.683624 314.844574,445.012482 315.586365,447.777985 
	C316.235992,450.200165 315.358978,453.031769 315.139496,456.352783 
	C315.576782,457.196777 316.030853,457.370514 316.484924,457.544312 
z"/>
<path fill="#EAEAEA" opacity="1.000000" stroke="none" 
	d="
M164.998337,439.760681 
	C166.175385,439.815979 166.972198,439.871185 166.694977,439.851990 
	C166.378601,446.180328 166.073395,452.285339 165.711884,459.516418 
	C167.970612,457.803101 169.231949,456.846313 170.849731,455.619171 
	C171.397217,456.764984 171.841339,457.694427 172.285461,458.623901 
	C170.077591,459.633881 167.881836,461.333557 165.656921,461.372620 
	C164.485901,461.393188 163.263916,458.511932 161.758911,456.540009 
	C160.799988,457.265198 159.376526,458.312744 157.984116,459.399994 
	C153.512772,462.891357 150.357681,461.850494 149.436707,456.181427 
	C148.855972,452.606720 149.185791,448.891754 148.949127,445.250000 
	C148.842438,443.608368 148.350220,441.991791 147.985825,440.122253 
	C149.858917,440.122253 152.273926,440.122253 154.665131,440.122253 
	C151.413116,445.885132 152.479980,451.799133 153.854401,457.919678 
	C162.426865,454.393799 165.570526,446.560455 160.948929,439.760559 
	C162.409653,439.760559 163.513885,439.760559 164.998337,439.760681 
z"/>
<path fill="#E8E8E8" opacity="1.000000" stroke="none" 
	d="
M280.909760,440.241455 
	C279.532013,442.616852 278.147949,444.630035 277.326721,446.851318 
	C275.088562,452.905273 273.329224,459.147827 270.845245,465.092133 
	C270.109772,466.852173 267.734100,468.673279 265.859650,468.991425 
	C264.139618,469.283356 262.046173,467.655823 260.218567,466.683533 
	C259.986267,466.559906 260.366974,465.283966 260.527222,464.054169 
	C261.892120,464.728729 262.807098,465.444366 263.813599,465.612640 
	C265.110168,465.829346 267.276428,466.100769 267.662231,465.477875 
	C268.640594,463.898285 269.689301,461.552612 269.184509,460.014191 
	C267.598846,455.181824 265.354401,450.560394 263.272675,445.898590 
	C262.460815,444.080505 261.402954,442.372345 260.104187,439.957977 
	C261.453278,439.747620 263.066772,439.496002 264.949524,439.202423 
	C266.606873,444.931702 268.196411,450.426544 269.785950,455.921387 
	C272.265198,450.530060 275.787567,445.631561 274.765076,438.782288 
	C276.553406,439.115570 278.856781,439.544861 280.909760,440.241455 
z"/>
<path fill="#E8E8E8" opacity="1.000000" stroke="none" 
	d="
M511.076904,461.024994 
	C503.300781,462.126709 501.093658,460.999878 498.443329,454.817657 
	C496.742889,450.851166 498.547791,442.242340 502.108032,440.651215 
	C504.694672,439.495239 508.324493,438.912689 510.867889,439.818665 
	C515.051575,441.308929 514.935608,445.689850 515.097229,449.755035 
	C510.663788,450.547028 506.457031,451.298492 501.822052,452.126495 
	C502.723541,454.537384 503.513733,456.650665 504.462616,459.188293 
	C508.070435,458.534882 511.448761,457.923065 515.032715,457.273956 
	C516.596619,461.036316 513.592346,460.617767 511.076904,461.024994 
M505.150055,448.943604 
	C507.366089,448.535217 509.582092,448.126831 511.791077,447.719757 
	C510.422607,441.136627 508.343597,439.765839 503.824402,442.617767 
	C502.710541,443.320679 502.326202,445.521362 502.104034,447.103394 
	C502.029846,447.631439 503.506683,448.377289 505.150055,448.943604 
z"/>
<path fill="#EAEAEA" opacity="1.000000" stroke="none" 
	d="
M360.462524,442.888550 
	C362.822327,441.358276 364.794067,439.409546 367.029510,439.035004 
	C373.255402,437.991943 375.708221,440.959625 376.425568,449.753967 
	C372.271088,450.505615 368.083679,451.263184 363.904755,452.019257 
	C365.140350,459.944305 365.265808,459.995300 376.398285,457.092865 
	C376.595520,457.799225 377.172546,458.697510 376.928741,459.186920 
	C375.593292,461.868073 365.439941,462.181763 363.319611,459.991760 
	C358.496948,455.010498 359.650665,449.078156 360.462524,442.888550 
M370.167236,441.460510 
	C365.302246,441.446320 362.251282,443.085388 363.641205,449.267822 
	C366.793701,448.788513 369.940247,448.310089 373.874878,447.711853 
	C372.688782,445.371887 371.784271,443.587463 370.167236,441.460510 
z"/>
<path fill="#E8E8E8" opacity="1.000000" stroke="none" 
	d="
M417.999084,450.838531 
	C416.271851,454.542145 414.773041,458.024353 412.646332,461.067749 
	C411.069305,463.324615 406.224487,462.496094 404.045532,460.015778 
	C397.848206,452.961426 397.562988,446.903015 402.298859,440.758301 
	C404.910797,437.369293 408.340668,437.419586 411.111450,438.452362 
	C413.483429,439.336517 415.357361,442.242126 416.819397,444.639282 
	C417.780182,446.214630 417.617615,448.475159 417.999084,450.838531 
M406.091125,441.475891 
	C401.604370,444.620880 402.026703,449.079468 403.010345,453.566498 
	C403.829193,457.301788 409.397308,460.625824 411.090393,458.440460 
	C413.825073,454.910553 415.777313,451.046753 414.001801,446.069183 
	C412.667145,442.327393 410.191193,441.365112 406.091125,441.475891 
z"/>
<path fill="#E8E8E8" opacity="1.000000" stroke="none" 
	d="
M565.296753,451.050262 
	C563.256836,451.426727 561.642639,451.763214 560.042114,452.096832 
	C561.421082,459.768433 561.421082,459.768433 573.035400,457.089539 
	C572.838684,458.281616 572.832092,460.080078 572.486084,460.147919 
	C568.760986,460.878601 564.305603,462.861725 561.358215,461.553925 
	C555.079651,458.767944 553.715149,444.591461 558.605957,441.161804 
	C565.223694,436.521210 570.920532,438.483704 572.426270,446.347656 
	C572.611450,447.315094 572.772888,448.287109 573.024597,449.703156 
	C570.515686,450.152252 568.119019,450.581238 565.296753,451.050262 
M559.867676,444.122681 
	C559.867676,445.709320 559.867676,447.295990 559.867676,449.323883 
	C563.226807,448.787842 566.255066,448.304596 569.267822,447.823822 
	C568.351379,440.360443 567.329102,439.900482 559.867676,444.122681 
z"/>
<path fill="#ECECEC" opacity="1.000000" stroke="none" 
	d="
M144.399506,452.415985 
	C142.930939,455.029480 141.590225,457.307617 140.141296,459.514679 
	C137.876266,462.964874 133.525436,463.319031 130.740005,460.338135 
	C124.404900,453.558411 123.943832,446.745209 128.770554,440.661224 
	C131.247849,437.538696 134.501846,437.416809 137.155594,438.406921 
	C139.545639,439.298645 141.721100,441.920654 142.995132,444.310455 
	C144.175354,446.524384 144.036713,449.441345 144.399506,452.415985 
M136.384827,459.079773 
	C140.952271,454.885864 142.231583,449.528229 139.856613,444.540314 
	C138.101471,440.854095 133.155975,440.331329 130.619690,443.563995 
	C126.342865,449.014984 128.650543,456.213654 136.384827,459.079773 
z"/>
<path fill="#E4E4E4" opacity="1.000000" stroke="none" 
	d="
M547.065308,441.356934 
	C541.039734,444.201508 538.321838,450.081482 541.223328,455.342346 
	C542.154297,457.030273 545.916809,457.177612 548.399841,457.980316 
	C549.825500,458.441132 551.283203,458.802673 552.726501,459.208893 
	C552.616577,459.862732 552.506653,460.516571 552.396790,461.170410 
	C550.295288,461.170410 547.959595,461.760437 546.144104,461.039856 
	C542.983215,459.785309 537.947937,461.218506 537.300232,455.807770 
	C536.283691,447.316101 538.769409,440.635590 543.864258,439.369629 
	C545.932434,438.855774 548.989502,439.310944 550.476562,440.608643 
	C551.356506,441.376617 550.047913,444.652466 548.868347,446.599518 
	C548.397827,444.804535 547.927307,443.009583 547.065308,441.356934 
z"/>
<path fill="#EAEAEA" opacity="1.000000" stroke="none" 
	d="
M384.951355,440.897614 
	C388.639893,438.724457 392.130127,437.330414 395.821045,441.270996 
	C395.185699,442.961456 394.455963,444.903107 393.726196,446.844757 
	C393.502106,446.837921 393.278015,446.831085 393.053925,446.824280 
	C392.972809,445.073608 392.891663,443.322937 392.807983,441.517059 
	C386.031708,442.842041 381.880463,450.604370 385.449341,455.749207 
	C386.572113,457.367798 390.103180,457.335907 392.545166,458.011810 
	C394.036133,458.424500 395.552277,458.746399 397.057098,459.109070 
	C396.892059,459.920563 396.726990,460.732086 396.561951,461.543610 
	C391.717560,460.765839 386.873169,459.988098 382.221497,459.241272 
	C381.235565,452.376984 380.812958,446.467499 384.951355,440.897614 
z"/>
<path fill="#E4E4E4" opacity="1.000000" stroke="none" 
	d="
M522.002380,454.686554 
	C521.493958,449.643066 520.954163,445.057281 520.520447,440.461487 
	C520.468506,439.910889 520.869385,438.950256 521.278503,438.808289 
	C521.913940,438.587769 523.082642,438.626617 523.422485,439.045013 
	C525.220459,441.258606 527.192566,440.806183 529.556152,440.164856 
	C530.647034,439.868866 532.277649,440.665375 533.315674,441.435455 
	C533.867065,441.844452 533.674988,443.255524 533.818481,444.214264 
	C532.895325,444.098602 531.634338,444.327240 531.106201,443.809021 
	C528.503601,441.254913 526.286316,442.756439 526.015198,445.132812 
	C525.428589,450.274994 524.185669,455.739380 528.082214,460.740479 
	C525.458130,460.740479 523.049438,460.740479 520.769775,460.740479 
	C521.172668,458.911377 521.587830,457.026306 522.002380,454.686554 
z"/>
<path fill="#F0F0F0" opacity="1.000000" stroke="none" 
	d="
M110.588974,447.101990 
	C110.584175,445.955902 110.614975,445.290894 110.572746,444.630493 
	C110.387077,441.726868 105.940300,434.690491 114.769386,440.753326 
	C116.525406,441.959198 121.066124,438.140686 123.373604,444.398682 
	C121.619652,444.012512 120.455559,443.558228 119.287727,443.548431 
	C117.772156,443.535675 115.718124,443.325500 114.843178,444.175476 
	C112.753197,446.205811 114.049866,457.912933 116.644684,460.580933 
	C115.117134,460.743622 113.933212,460.916901 112.743347,460.982880 
	C111.610550,461.045654 110.471550,460.996368 109.979004,460.996368 
	C110.190681,456.357269 110.390808,451.971222 110.588974,447.101990 
z"/>
<path fill="#D7D7D7" opacity="1.000000" stroke="none" 
	d="
M289.952820,443.500061 
	C289.923309,447.432190 289.681702,450.930786 289.943359,454.391357 
	C290.124969,456.792664 290.999329,459.141602 291.597504,461.653992 
	C289.787628,461.653992 287.065582,461.653992 284.249237,461.653992 
	C287.535736,456.269226 286.840118,442.292297 282.582581,439.052185 
	C286.049744,438.860107 288.884613,438.703033 291.925964,438.534546 
	C291.148102,440.317139 290.551788,441.683716 289.952820,443.500061 
z"/>
<path fill="#060606" opacity="1.000000" stroke="none" 
	d="
M732.911743,303.814392 
	C736.471069,298.562561 741.025940,301.511963 745.017090,302.065796 
	C749.117676,302.634796 750.371582,306.172302 750.541565,309.906677 
	C751.166321,323.630280 743.604858,331.535706 730.027222,331.454224 
	C728.875244,331.447296 727.723083,331.453278 726.004761,331.453278 
	C728.348083,322.121979 730.594971,313.174591 732.911743,303.814392 
z"/>
<path fill="#030303" opacity="1.000000" stroke="none" 
	d="
M237.968140,377.414001 
	C238.925049,369.442078 239.129333,361.688538 241.100098,354.413544 
	C244.907593,340.358124 249.286713,326.415771 254.329514,312.759125 
	C256.130951,307.880493 259.964447,303.289001 263.982117,299.874542 
	C266.207153,297.983612 271.237335,297.595673 274.050537,298.784424 
	C276.160034,299.675873 278.125977,304.345398 277.773346,307.018555 
	C276.389740,317.506226 274.813324,328.086151 271.888733,338.222137 
	C268.457184,350.115295 264.017914,361.788910 259.027924,373.122864 
	C257.267242,377.121948 253.083160,380.713501 249.129272,382.923340 
	C244.004440,385.787689 240.216034,383.506256 237.968140,377.414001 
z"/>
<path fill="#040404" opacity="1.000000" stroke="none" 
	d="
M521.275269,308.234833 
	C519.494507,315.706543 518.378479,323.001343 515.730286,329.689423 
	C511.943085,339.254272 506.447968,341.499908 492.551819,340.675232 
	C494.525543,333.631866 496.434662,326.719177 498.402954,319.823364 
	C500.355621,312.982391 502.367889,306.158417 504.342010,299.368530 
	C516.079041,297.308289 520.214844,299.382660 521.275269,308.234833 
z"/>
<path fill="#040404" opacity="1.000000" stroke="none" 
	d="
M404.716309,311.628967 
	C403.106171,317.448273 401.971710,323.008575 399.916626,328.204773 
	C395.652588,338.986267 390.373352,341.598816 375.949402,340.675415 
	C379.064056,329.682220 382.149933,318.789886 385.237976,307.898224 
	C385.282990,307.739502 385.366516,307.591766 385.412781,307.433289 
	C388.164124,298.008820 388.727386,297.621033 397.730988,298.957550 
	C403.019318,299.742554 405.002411,303.190460 404.716309,311.628967 
z"/>
<path fill="#0D0D0D" opacity="1.000000" stroke="none" 
	d="
M329.152435,449.990112 
	C327.148071,447.685089 325.497406,444.966614 328.425354,443.482117 
	C330.689362,442.334259 334.825470,442.107788 336.531036,443.471130 
	C338.001587,444.646576 337.216949,448.643402 337.509827,452.434692 
	C333.700623,451.438538 331.539917,450.873474 329.152435,449.990112 
z"/>
<path fill="#0D0D0D" opacity="1.000000" stroke="none" 
	d="
M99.943649,449.766785 
	C96.925301,453.330353 94.022697,451.516510 91.885490,449.542328 
	C90.709343,448.455933 89.917801,445.318512 90.639069,444.124023 
	C92.672791,440.756012 96.465355,441.636658 99.036682,443.129395 
	C100.208450,443.809662 99.792290,447.225189 99.943649,449.766785 
z"/>
<path fill="#0D0D0D" opacity="1.000000" stroke="none" 
	d="
M180.806473,455.891113 
	C180.065765,452.491394 179.482162,449.226654 179.516769,445.968506 
	C179.526810,445.021729 181.236206,443.406586 182.287292,443.301178 
	C184.433197,443.085999 188.196716,443.095703 188.569885,444.063354 
	C189.732315,447.077484 190.778351,451.043701 189.688660,453.768585 
	C188.558319,456.595154 184.779816,457.980103 180.806473,455.891113 
z"/>
<path fill="#060606" opacity="1.000000" stroke="none" 
	d="
M220.991119,457.914978 
	C219.678741,456.733765 218.154861,455.695374 218.013626,454.494385 
	C217.647720,451.382812 217.890869,448.199646 217.890869,443.830231 
	C220.782089,443.830231 224.294525,442.805573 225.995132,444.121796 
	C227.656403,445.407623 228.528076,449.423401 227.821503,451.622223 
	C226.954819,454.319305 225.777023,458.171295 220.991119,457.914978 
z"/>
<path fill="#000000" opacity="1.000000" stroke="none" 
	d="
M316.200378,457.269104 
	C316.030853,457.370514 315.576782,457.196777 315.198853,456.776001 
	C315.488647,456.683990 315.702209,456.838959 316.200378,457.269104 
z"/>
<path fill="#0D0D0D" opacity="1.000000" stroke="none" 
	d="
M504.712280,448.983582 
	C503.506683,448.377289 502.029846,447.631439 502.104034,447.103394 
	C502.326202,445.521362 502.710541,443.320679 503.824402,442.617767 
	C508.343597,439.765839 510.422607,441.136627 511.791077,447.719757 
	C509.582092,448.126831 507.366089,448.535217 504.712280,448.983582 
z"/>
<path fill="#0D0D0D" opacity="1.000000" stroke="none" 
	d="
M370.523499,441.631775 
	C371.784271,443.587463 372.688782,445.371887 373.874878,447.711853 
	C369.940247,448.310089 366.793701,448.788513 363.641205,449.267822 
	C362.251282,443.085388 365.302246,441.446320 370.523499,441.631775 
z"/>
<path fill="#080808" opacity="1.000000" stroke="none" 
	d="
M406.444946,441.358337 
	C410.191193,441.365112 412.667145,442.327393 414.001801,446.069183 
	C415.777313,451.046753 413.825073,454.910553 411.090393,458.440460 
	C409.397308,460.625824 403.829193,457.301788 403.010345,453.566498 
	C402.026703,449.079468 401.604370,444.620880 406.444946,441.358337 
z"/>
<path fill="#0D0D0D" opacity="1.000000" stroke="none" 
	d="
M559.981934,443.712006 
	C567.329102,439.900482 568.351379,440.360443 569.267822,447.823822 
	C566.255066,448.304596 563.226807,448.787842 559.867676,449.323883 
	C559.867676,447.295990 559.867676,445.709320 559.981934,443.712006 
z"/>
<path fill="#080808" opacity="1.000000" stroke="none" 
	d="
M135.991211,459.085999 
	C128.650543,456.213654 126.342865,449.014984 130.619690,443.563995 
	C133.155975,440.331329 138.101471,440.854095 139.856613,444.540314 
	C142.231583,449.528229 140.952271,454.885864 135.991211,459.085999 
z"/>
</svg>